<?xml version="1.0" encoding="UTF-8"?>
<svg version="1.1" xmlns="http://www.w3.org/2000/svg" width="120" height="145">
<path d="M0 0 C3.63002789 1.77227421 5.81724736 4.56625542 8.30078125 7.65234375 C8.82921631 8.28906006 9.35765137 8.92577637 9.90209961 9.58178711 C11.44508964 11.44837938 12.97011201 13.3280356 14.48828125 15.21484375 C15.56335938 16.54902344 15.56335938 16.54902344 16.66015625 17.91015625 C17.91778205 19.4847869 19.17429806 21.06030457 20.4296875 22.63671875 C21.44869141 23.91289063 21.44869141 23.91289063 22.48828125 25.21484375 C22.90964355 25.74529297 23.33100586 26.27574219 23.76513672 26.82226562 C33.48208524 38.97793712 41.80419135 43.7216652 56.48828125 48.21484375 C55.00025479 52.70949902 51.47501528 54.38336543 47.61328125 56.65234375 C46.17193009 57.52398295 44.73189 58.39779277 43.29296875 59.2734375 C42.52178711 59.74120605 41.75060547 60.20897461 40.95605469 60.69091797 C35.6134073 63.99016658 30.386448 67.47255017 25.14111328 70.92358398 C24.33270996 71.45282471 23.52430664 71.98206543 22.69140625 72.52734375 C21.61874512 73.23310547 21.61874512 73.23310547 20.52441406 73.953125 C14.76615441 77.52131275 10.23171669 78.03633321 3.48828125 77.21484375 C-4.0468427 75.06366801 -9.52361403 69.80134537 -15.2644043 64.73925781 C-27.18128221 54.2737634 -38.7125508 49.00730609 -54.67578125 48.390625 C-57.51171875 48.21484375 -57.51171875 48.21484375 -59.51171875 47.21484375 C-58.14463169 44.03382796 -56.72386829 42.30631227 -53.9765625 40.21875 C-53.25823242 39.66678955 -52.53990234 39.1148291 -51.79980469 38.54614258 C-51.02411133 37.96243896 -50.24841797 37.37873535 -49.44921875 36.77734375 C-48.64645508 36.16334717 -47.84369141 35.54935059 -47.01660156 34.91674805 C-44.52015079 33.00920737 -42.0161946 31.11182999 -39.51171875 29.21484375 C-37.29916666 27.52719992 -35.08867222 25.83689173 -32.87841797 24.14624023 C-31.47049879 23.06943377 -30.06197248 21.99342066 -28.65283203 20.91821289 C-24.01949557 17.38047311 -19.40983977 13.8142236 -14.82421875 10.21484375 C-13.99615723 9.5657605 -13.99615723 9.5657605 -13.15136719 8.90356445 C-9.98056953 6.4206058 -9.98056953 6.4206058 -6.96240234 3.7578125 C-4.66876085 1.63588357 -3.1727467 0.2713858 0 0 Z " fill="#2F51A0" transform="translate(60.51171875,0.78515625)"/>
<path d="M0 0 C10.70525629 0.15244827 19.83371909 7.48723514 27.55273438 14.25561523 C39.51023978 24.72914707 52.61257114 33.11644684 69.00146484 32.99072266 C76.8466834 32.11666758 83.33082314 26.4470758 89.5625 22 C90.99597531 21.01066358 92.43151454 20.02431071 93.86914062 19.04101562 C96.49846667 17.23915547 99.11327692 15.41937208 101.71704102 13.58081055 C107.57949614 9.5302364 107.57949614 9.5302364 110 8.3125 C110.99 8.6425 111.98 8.9725 113 9.3125 C113.30050941 12.15367983 113.51554558 14.9629696 113.6875 17.8125 C113.77966797 18.60398437 113.87183594 19.39546875 113.96679688 20.2109375 C114.08791149 22.89747982 113.91268429 24.77558373 113 27.3125 C110.36876234 30.12916045 107.25464929 32.03230553 103.99026489 34.05297852 C100.80872144 36.06639007 97.72736056 38.22372873 94.62632751 40.35827637 C90.93467489 42.89055928 87.2180182 45.38482684 83.50048828 47.87890625 C81.56946027 49.177407 79.64176136 50.48087112 77.71728516 51.7890625 C74.91522413 53.69345869 72.10346995 55.58266354 69.2890625 57.46875 C68.4306778 58.05611938 67.57229309 58.64348877 66.68789673 59.24865723 C65.88290741 59.78341675 65.07791809 60.31817627 64.24853516 60.86914062 C63.54669098 61.34242798 62.8448468 61.81571533 62.12173462 62.30334473 C59.56136898 63.52112496 57.80472692 63.57411034 55 63.3125 C52.98974609 62.23364258 52.98974609 62.23364258 51.0234375 60.70703125 C50.2802124 60.14234131 49.5369873 59.57765137 48.77124023 58.99584961 C47.58510132 58.06977905 47.58510132 58.06977905 46.375 57.125 C44.66749664 55.82791769 42.95780065 54.5337175 41.24609375 53.2421875 C40.37452637 52.5831543 39.50295898 51.92412109 38.60498047 51.24511719 C34.62845354 48.29495907 30.54212637 45.51780047 26.4375 42.75 C17.73395425 36.85919102 9.12322197 30.8328109 0.71020508 24.53173828 C-1.06647175 23.20164161 -1.06647175 23.20164161 -3.484375 22.046875 C-6.24189661 18.89136058 -5.4451434 14.69627821 -5.3125 10.6875 C-5.30283203 9.80320312 -5.29316406 8.91890625 -5.28320312 8.0078125 C-5.14495442 0.16971204 -5.14495442 0.16971204 0 0 Z " fill="#7B4DDC" transform="translate(6,79.6875)"/>
<path d="M0 0 C14.32701186 0.31487938 23.76668313 7.56993867 34.1875 16.4375 C42.60542127 23.53496304 51.25191514 30.06614444 62.80859375 29.83203125 C74.13785392 27.95312275 84.84104622 18.46642021 94.15478516 12.09082031 C96.0536648 10.79838914 97.96299356 9.52290199 99.875 8.25 C100.4510498 7.85127686 101.02709961 7.45255371 101.62060547 7.04174805 C105.69807518 4.34668736 105.69807518 4.34668736 108.37036133 4.8425293 C108.97001709 5.03886963 109.56967285 5.23520996 110.1875 5.4375 C112.85116447 23.65407233 112.85116447 23.65407233 108.84130859 29.34960938 C104.9906362 32.7680966 100.38461894 34.89743216 95.77246094 37.10986328 C91.12565414 39.49646466 86.88326426 42.51361094 82.5625 45.4375 C73.98685537 51.16655804 66.8666521 55.84644361 56.1875 54.4375 C46.44828009 51.89288267 38.67025225 45.83434157 31.4375 39.0625 C20.91771403 29.37235015 9.5959797 23.0916495 -4.58984375 20.8671875 C-6.8125 20.4375 -6.8125 20.4375 -7.8125 19.4375 C-7.93913091 16.61333618 -7.99770548 13.82455207 -8 11 C-8.01224609 10.21044922 -8.02449219 9.42089844 -8.03710938 8.60742188 C-8.04237279 6.54942565 -7.93456285 4.49187991 -7.8125 2.4375 C-5.14291474 -0.23208526 -3.7327486 0.07673123 0 0 Z " fill="#4863B3" transform="translate(8.8125,53.5625)"/>
</svg>
